HIERARCHY
ROOT Hips
{
	OFFSET 0.00000 0.00000 0.00000
	CHANNELS 6 Xposition Yposition Zposition Zrotation Yrotation Xrotation 
	JOINT LHipJoint
	{
		OFFSET 0 0 0
		CHANNELS 3 Zrotation Yrotation Xrotation
		JOINT LeftHip
		{
			OFFSET 1.37959 -1.78713 0.86582
			CHANNELS 3 Zrotation Yrotation Xrotation
			JOINT LeftKnee
			{
				OFFSET 2.54611 -6.99539 0.00000
				CHANNELS 3 Zrotation Yrotation Xrotation
				JOINT LeftAnkle
				{
					OFFSET 2.59951 -7.14211 0.00000
					CHANNELS 3 Zrotation Yrotation Xrotation
					JOINT LeftToe
					{
						OFFSET 0.18493 -0.50810 1.96120
						CHANNELS 3 Zrotation Yrotation Xrotation
						End Site
						{
							OFFSET 0.00000 -0.00000 1.02054
						}
					}
				}
			}
		}
	}
	JOINT RHipJoint
	{
		OFFSET 0 0 0
		CHANNELS 3 Zrotation Yrotation Xrotation
		JOINT RightHip
		{
			OFFSET -1.33564 -1.78713 0.86582
			CHANNELS 3 Zrotation Yrotation Xrotation
			JOINT RightKnee
			{
				OFFSET -2.52705 -6.94302 0.00000
				CHANNELS 3 Zrotation Yrotation Xrotation
				JOINT RightAnkle
				{
					OFFSET -2.55964 -7.03257 0.00000
					CHANNELS 3 Zrotation Yrotation Xrotation
					JOINT RightToe
					{
						OFFSET -0.25804 -0.70896 2.12109
						CHANNELS 3 Zrotation Yrotation Xrotation
						End Site
						{
							OFFSET -0.00000 -0.00000 1.11821
						}
					}
				}
			}
		}
	}
	JOINT lowerback
	{
		OFFSET 0 0 0
		CHANNELS 3 Zrotation Yrotation Xrotation
		JOINT Chest
		{
			OFFSET -0.02031 2.24248 -0.18900
			CHANNELS 3 Zrotation Yrotation Xrotation
			JOINT Chest2
			{
				OFFSET 0.08342 2.24689 -0.03799
				CHANNELS 3 Zrotation Yrotation Xrotation
				JOINT lowerneck
				{
					OFFSET 0 0 0
					CHANNELS 3 Zrotation Yrotation Xrotation
					JOINT Neck
					{
						OFFSET -0.11607 1.55844 0.24628
						CHANNELS 3 Zrotation Yrotation Xrotation
						JOINT Head
						{
							OFFSET 0.06877 1.60174 -0.17013
							CHANNELS 3 Zrotation Yrotation Xrotation
							End Site
							{
								OFFSET 0.03358 1.61266 -0.08543
							}
						}
					}
				}
				JOINT LeftCollar
				{
					OFFSET 0 0 0
					CHANNELS 3 Zrotation Yrotation Xrotation
					JOINT LeftShoulder
					{
						OFFSET 3.47537 0.55866 -0.72348
CHANNELS 3 Zrotation Xrotation Yrotation
						JOINT LeftElbow
						{
OFFSET 0 -5.381540 0.000000
CHANNELS 3 Zrotation Xrotation Yrotation
							JOINT LeftWrist
							{
OFFSET 0 -3.333120 0.000000
CHANNELS 3 Zrotation Xrotation Yrotation
								JOINT lhand
								{
									OFFSET 0 0 0
CHANNELS 3 Zrotation Xrotation Yrotation
									JOINT LFingers
									{
OFFSET 0 -0.710790 0.000000
CHANNELS 3 Zrotation Xrotation Yrotation
										End Site
										{
OFFSET 0 -0.573060 0.000000
										}
									}
								}
								JOINT LThumb
								{
OFFSET 0 0.000000 0.000000
CHANNELS 3 Zrotation Xrotation Yrotation
									End Site
									{
OFFSET 0 -0.581810 0.581810
									}
								}
							}
						}
					}
				}
				JOINT RightCollar
				{
					OFFSET 0 0 0
					CHANNELS 3 Zrotation Yrotation Xrotation
					JOINT RightShoulder
					{
						OFFSET -3.27844 0.90739 -0.35708
CHANNELS 3 Zrotation Xrotation Yrotation
						JOINT RightElbow
						{
OFFSET 0 -5.169540 0.000000
CHANNELS 3 Zrotation Xrotation Yrotation
							JOINT RightWrist
							{
OFFSET 0 -3.382870 0.000000
CHANNELS 3 Zrotation Xrotation Yrotation
								JOINT rhand
								{
									OFFSET 0 0 0
CHANNELS 3 Zrotation Xrotation Yrotation
									JOINT RFingers
									{
OFFSET 0 -0.817970 0.000000
CHANNELS 3 Zrotation Xrotation Yrotation
										End Site
										{
OFFSET 0 -0.659470 0.000000
										}
									}
								}
								JOINT RThumb
								{
OFFSET 0 0.000000 0.000000
CHANNELS 3 Zrotation Xrotation Yrotation
									End Site
									{
OFFSET 0 -0.669530 0.669530
									}
								}
							}
						}
					}
				}
			}
		}
	}
}
MOTION
Frames: 13
Frame Time: .0083333
6.0700 16.4572 -5.5084 4.6918 -59.5029 -8.7117 0.0000 0.0000 0.0000 -3.7587 -12.9962 -19.8777 3.9937 12.1520 36.2717 0.1383 -7.4173 -7.8706 1.3022 -7.2294 -20.3968 0.0000 0.0000 0.0000 4.6720 -2.0831 -25.7282 -8.7446 -16.6405 55.2024 -0.6827 -9.8312 -22.1184 -0.3758 -3.9371 10.8997 -2.3024 3.5560 14.9776 2.1122 4.2611 5.7280 2.7845 2.0055 -2.6440 -3.3241 9.9266 -14.4857 -4.9437 15.4211 18.7465 0.6419 6.5010 8.3845 -0.0000 0.0000 0.0000 5.7319 -20.9624 -69.9928 90.8544 -59.9972 60.7399 24.5452 24.6911 -27.7092 0.0 0.0 0.0 -7.1250 0.0 0.0 -6.7889 59.8538 2.4681 -0.0000 0.0000 0.0000 -10.3974 -8.5528 22.1873 -127.2975 -54.029 -91.6528 -50.333 -41.2699 -29.4823 0.0 0.0 0.0 7.1250 0.0 -0.0 -10.7180 -10.9146 -12.7565
5.9101 16.5059 -5.5502 3.6619 -59.3088 -7.6193 0.0000 0.0000 0.0000 -2.9990 -13.1352 -19.0142 3.7835 11.8666 35.2618 0.1536 -6.9922 -7.9557 1.1304 -6.7528 -18.9850 0.0000 0.0000 0.0000 4.3374 -0.9445 -24.2386 -7.6676 -15.8693 51.3565 -0.4990 -10.8309 -21.3399 -0.5389 -4.7036 13.0650 -1.5899 3.6171 14.8297 2.2210 4.4526 5.6351 2.4691 2.1084 -2.6331 -3.3569 9.7774 -14.0747 -4.8191 15.1467 18.5085 0.6238 6.4101 8.2142 -0.0000 -0.0000 0.0000 6.0981 -20.0653 -69.09 88.5444 -59.992 58.7395 24.2336 24.0846 -27.6733 0.0 0.0 0.0 -7.1250 0.0 0.0 -7.1232 59.7417 2.5713 -0.0000 -0.0000 0.0000 -10.6009 -8.0983 21.24 -127.5765 -53.9274 -91.8785 -50.512 -40.9187 -29.5306 0.0 0.0 0.0 7.1250 0.0 -0.0 -10.7981 -11.0665 -12.8775
5.7551 16.5507 -5.5889 4.1902 -59.0740 -7.9431 0.0000 0.0000 0.0000 -3.1786 -13.3856 -17.9854 3.5751 11.5724 34.2356 0.1715 -6.4913 -8.0795 1.3237 -7.2864 -20.5667 0.0000 0.0000 0.0000 3.0036 0.0966 -22.5705 -6.6476 -15.0278 47.5286 -0.4261 -10.7023 -20.4738 -0.9629 -6.2478 17.5052 -1.8122 3.7132 14.8105 2.2500 4.5546 5.5675 2.6047 2.1603 -2.7189 -3.5495 9.7049 -13.9074 -4.6617 15.0400 18.4641 0.6779 6.3717 8.1404 -0.0000 0.0000 0.0000 6.3227 -19.1181 -67.9594 86.4297 -59.9518 56.9085 23.5968 23.3084 -27.7899 0.0 0.0 0.0 -7.1250 0.0 0.0 -7.8986 59.7097 2.8472 -0.0000 0.0000 0.0000 -11.0749 -7.6464 20.6588 -128.1062 -53.7313 -92.3061 -50.0992 -39.886 -29.0478 0.0 0.0 0.0 7.1250 0.0 -0.0 -10.7255 -10.2783 -12.6707
5.5809 16.5776 -5.6471 4.4072 -58.9378 -7.9360 0.0000 0.0000 0.0000 -3.0398 -13.3046 -17.1524 3.3778 11.2829 33.2400 0.1813 -6.2489 -8.1685 1.5116 -7.7645 -22.0012 0.0000 0.0000 0.0000 2.0686 1.4460 -20.8852 -5.7077 -14.1389 43.7969 -0.2110 -11.5866 -19.1407 -0.8940 -6.0264 16.8610 -2.4046 3.7994 14.5207 2.4863 4.6017 5.6177 3.1938 2.1770 -2.5777 -3.7244 9.7076 -14.3510 -4.5009 15.1184 18.8913 0.8006 6.3768 8.3367 0.0000 -0.0000 0.0000 6.3716 -18.2453 -66.365 84.3690 -59.8798 55.1254 22.9253 22.5913 -27.8885 0.0 0.0 0.0 -7.1250 0.0 0.0 -8.7017 59.6507 3.127 0.0000 -0.0000 0.0000 -11.7612 -7.8293 20.6734 -128.0547 -53.7506 -92.2646 -50.4821 -40.7245 -29.266 0.0 0.0 0.0 7.1250 0.0 -0.0 -10.8630 -10.7382 -12.9083
5.3980 16.6033 -5.7163 2.4030 -58.6603 -5.9210 0.0000 0.0000 0.0000 -1.4988 -13.1774 -16.6782 3.2005 11.0128 32.3231 0.1767 -6.3407 -8.1187 1.4414 -7.5901 -21.4758 0.0000 0.0000 0.0000 2.5396 2.9913 -19.0978 -4.8489 -13.2115 40.1656 0.0207 -12.8669 -18.0359 -0.6474 -5.1470 14.3282 -1.9497 3.6696 14.0182 3.0039 4.5139 5.6886 3.5257 2.1291 -2.2360 -3.6878 9.7900 -14.7007 -4.5898 15.2956 19.1773 0.8168 6.4260 8.5085 0.0000 -0.0000 0.0000 6.5187 -17.5049 -64.5864 82.0388 -59.7591 53.111 22.2291 21.9788 -27.8642 0.0 0.0 0.0 -7.1250 0.0 0.0 -9.4629 59.4617 3.3606 0.0000 -0.0000 0.0000 -12.3992 -8.2783 20.8475 -127.6515 -53.8999 -91.9391 -49.5411 -39.8936 -28.8114 0.0 0.0 0.0 7.1250 0.0 -0.0 -10.4984 -9.7098 -12.3094
5.2279 16.6252 -5.7775 0.0603 -58.1486 -3.7092 0.0000 0.0000 0.0000 0.2237 -13.3699 -16.2226 3.0594 10.7905 31.5766 0.1781 -6.3199 -8.1356 1.4460 -7.6017 -21.5106 0.0000 0.0000 0.0000 3.2330 4.2434 -17.1941 -4.0723 -12.2560 36.6438 0.2769 -14.1681 -16.5911 -0.3958 -4.0393 11.1873 -0.7851 3.5025 13.6897 3.3363 4.4502 5.6994 3.2477 2.1036 -1.9850 -3.4431 9.8157 -14.4819 -4.6976 15.2666 18.9728 0.7260 6.4373 8.4275 0.0000 -0.0000 0.0000 6.9451 -16.8864 -63.2471 79.4835 -59.5779 50.9054 21.5153 21.2739 -28.0707 0.0 0.0 0.0 -7.1250 0.0 0.0 -10.3657 59.5031 3.6955 0.0000 -0.0000 0.0000 -12.7495 -8.4418 20.6256 -127.4827 -53.9617 -91.8027 -48.6122 -38.6479 -28.2221 0.0 0.0 0.0 7.1250 0.0 -0.0 -10.1717 -8.5447 -11.7433
5.0619 16.6383 -5.8348 -0.9911 -57.5674 -2.8244 0.0000 0.0000 0.0000 1.0988 -13.7906 -15.4954 2.9452 10.6057 30.9614 0.2033 -6.1291 -8.5040 1.6309 -8.0508 -22.8684 0.0000 0.0000 0.0000 3.2085 4.8795 -15.2774 -3.4049 -11.3233 33.3780 0.4931 -14.8759 -14.3995 -0.1587 -2.5670 7.0753 -0.0380 3.4388 13.6849 3.3795 4.4628 5.6490 2.8703 2.1181 -1.9840 -3.4062 9.7441 -14.2164 -4.1653 15.0257 18.9625 0.8450 6.3942 8.3280 0.0000 -0.0000 0.0000 7.404 -16.1545 -62.1159 77.0955 -59.3613 48.8484 20.5519 20.3161 -28.5266 0.0 0.0 0.0 -7.1250 0.0 0.0 -11.6904 59.7339 4.24 0.0000 -0.0000 0.0000 -12.9632 -8.3254 20.2812 -127.6932 -53.8845 -91.9728 -50.2235 -40.9926 -29.203 0.0 0.0 0.0 7.1250 0.0 -0.0 -10.7448 -10.527 -12.7316
4.8967 16.6422 -5.8844 -1.2475 -57.0902 -2.7507 0.0000 0.0000 0.0000 1.4053 -14.4974 -14.5070 2.8496 10.4475 30.4385 0.2416 -5.4892 -8.9812 1.9904 -8.8460 -25.3147 0.0000 0.0000 0.0000 2.7288 5.2385 -13.4444 -2.8642 -10.4718 30.5186 0.5603 -14.7259 -12.6133 -0.0166 -0.8331 2.2897 0.1954 3.3515 13.8135 3.4013 4.3795 5.6343 2.7683 2.0788 -2.0483 -3.1775 9.7211 -14.2202 -4.0887 14.9464 19.1754 0.8348 6.3690 8.4100 0.0000 -0.0000 0.0000 7.7535 -15.1882 -60.425 75.2282 -59.1592 47.2434 19.4284 19.4356 -28.8471 0.0 0.0 0.0 -7.1250 0.0 0.0 -13.1175 59.788 4.7848 0.0000 -0.0000 0.0000 -13.3072 -8.282 20.2396 -128.1819 -53.703 -92.3671 -51.7263 -43.5554 -30.1687 0.0 0.0 0.0 7.1250 0.0 -0.0 -11.2388 -12.4781 -13.6353
4.7371 16.6382 -5.9455 -1.5397 -56.5861 -2.3418 0.0000 0.0000 0.0000 1.9439 -15.1126 -14.0264 2.7680 10.3096 29.9853 0.2539 -4.9991 -9.0960 2.0674 -9.0051 -25.8113 0.0000 0.0000 0.0000 2.4061 5.7592 -12.0849 -2.4632 -9.7706 28.2371 0.5960 -14.6398 -11.4416 -0.0584 1.5598 -4.2906 0.3936 3.2127 13.5702 3.4060 4.2182 5.6502 2.7002 2.0011 -1.8794 -2.5581 9.6721 -14.3610 -4.7300 14.8864 19.1036 0.5432 6.3136 8.5140 -0.0000 0.0000 0.0000 8.3101 -14.3471 -58.5221 73.8274 -58.9883 46.0417 18.697 18.7313 -29.0102 0.0 0.0 0.0 -7.1250 0.0 0.0 -14.0179 59.7767 5.1171 -0.0000 0.0000 0.0000 -13.6402 -8.409 20.2569 -128.6720 -53.5173 -92.7616 -51.7667 -43.5357 -29.8568 0.0 0.0 0.0 7.1250 0.0 -0.0 -11.3584 -12.1338 -13.7337
4.5757 16.6320 -6.0092 -2.1827 -55.9974 -1.5585 0.0000 0.0000 0.0000 2.7622 -15.6702 -13.7472 2.6967 10.1870 29.5845 0.2533 -4.6078 -9.0299 1.4953 -7.7244 -21.8802 0.0000 0.0000 0.0000 2.3837 6.1602 -11.0545 -2.2035 -9.2777 26.6679 0.5709 -14.2291 -10.8518 -0.2906 3.4668 -9.5812 0.9834 3.0696 13.1168 3.2853 4.0868 5.7119 2.2882 1.9449 -1.5153 -1.8597 9.6014 -14.5726 -5.1039 14.7132 18.9337 0.3108 6.2439 8.5757 0.0000 -0.0000 0.0000 9.16 -13.7531 -56.9 72.4044 -58.7972 44.8233 17.7466 17.7689 -29.3298 0.0 0.0 0.0 -7.1250 0.0 0.0 -15.2583 59.866 5.615 0.0000 -0.0000 0.0000 -13.7291 -8.4943 20.0785 -129.1339 -53.3389 -93.1326 -51.1927 -42.2382 -29.1651 0.0 0.0 0.0 7.1250 0.0 -0.0 -11.2704 -10.9996 -13.4503
4.4073 16.6184 -6.0823 -2.7986 -55.5061 -0.9807 0.0000 0.0000 0.0000 3.5261 -16.0095 -13.2942 2.6325 10.0749 29.2195 0.2553 -4.1116 -9.0136 1.0092 -6.3921 -17.9263 0.0000 0.0000 0.0000 2.5067 6.5450 -10.0564 -2.0778 -9.0262 25.8773 0.4248 -13.0198 -11.4120 -0.4175 4.1472 -11.4911 1.3242 3.0264 12.9291 3.2844 4.0630 5.7547 2.1109 1.9382 -1.3448 -1.6195 9.5632 -14.7875 -5.0215 14.6041 18.9834 0.3022 6.2104 8.6390 0.0000 0.0000 0.0000 9.7487 -13.142 -55.3947 70.5183 -58.5162 43.2124 16.5293 16.7762 -29.7416 0.0 0.0 0.0 -7.1250 0.0 0.0 -16.8538 59.9779 6.2667 0.0000 0.0000 0.0000 -13.9335 -8.4921 19.8895 -129.7919 -53.0791 -93.6596 -49.9844 -40.6076 -28.5865 0.0 0.0 0.0 7.1250 0.0 -0.0 -10.8023 -9.6705 -12.6715
4.2373 16.6013 -6.1706 -3.2821 -55.2413 -0.5375 0.0000 0.0000 0.0000 4.2383 -15.8618 -12.9835 2.5885 9.9971 28.9673 0.2696 -3.7389 -9.2336 1.0648 -6.5604 -18.4194 0.0000 0.0000 0.0000 2.7421 7.0749 -9.2308 -2.0526 -8.9747 25.7163 0.2045 -11.0130 -12.1093 -0.4954 4.5128 -12.5241 1.3229 3.1270 12.9279 3.4112 4.1987 5.7537 2.2244 2.0044 -1.3586 -1.8273 9.4970 -14.9173 -4.6438 14.4909 19.0707 0.4483 6.1770 8.6415 -0.0000 0.0000 0.0000 10.011 -12.5302 -53.8981 68.4045 -58.1623 41.4132 15.609 16.1358 -29.9743 0.0 0.0 0.0 -7.1250 0.0 0.0 -18.0062 59.9842 6.7143 -0.0000 0.0000 0.0000 -14.3372 -8.5559 19.6669 -130.6087 -52.747 -94.3111 -49.111 -39.6691 -27.97 0.0 0.0 0.0 7.1250 0.0 -0.0 -10.5139 -8.4906 -12.1426
4.0759 16.5818 -6.2645 -4.0667 -54.9814 0.1611 0.0000 0.0000 0.0000 5.1535 -15.7330 -12.8176 2.5718 9.9673 28.8709 0.2829 -3.2005 -9.4543 1.3105 -7.2515 -20.4626 0.0000 0.0000 0.0000 3.3627 7.0301 -8.8944 -2.1035 -9.0785 26.0412 0.0375 -8.8560 -11.8976 -0.8926 6.0217 -16.8475 1.4375 3.2839 12.9194 3.6601 4.4197 5.8028 2.3906 2.1121 -1.3200 -1.9645 9.4308 -14.8024 -4.4534 14.3650 18.8410 0.5008 6.1458 8.5141 -0.0000 -0.0000 0.0000 9.9127 -12.0624 -52.3493 66.3170 -57.7708 39.6434 14.6981 15.6269 -30.2836 0.0 0.0 0.0 -7.1250 0.0 0.0 -19.2055 60.0632 7.2175 -0.0000 -0.0000 0.0000 -14.9023 -8.727 19.1507 -131.4184 -52.4072 -94.9542 -48.8097 -39.1005 -27.3945 0.0 0.0 0.0 7.1250 0.0 -0.0 -10.5159 -7.6512 -12.0137
